# xmcd CD database file
#
# Track frame offsets:
#	150
#	13107
#	22029
#	33621
#	47288
#	62090
#	73612
#	87364
#	100158
#	115515
#	126880
#	141395
#	158149
#	172924
#	187553
#	200415
#	211445
#	225027
#	234554
#	245368
#	259162
#	273674
#	289309
#	301746
#	314621
#
# Disc length: 4357 seconds
#
# Revision: 2
# Processed by: cddbd v1.5.1PL0 Copyright (c) Steve Scherf et al.
# Submitted via: CDex 1.51
#
DISCID=58110319
DTITLE=Various Artist - 25 Jazz Greats - Volume 2
DYEAR=2002
DGENRE=Jazz
TTITLE0=Count Basie - Jazz Me Blues
TTITLE1=Ella Fitzgerald - Lover Come Back To Me
TTITLE2=Nat King Cole - Scotchin' With The Soda
TTITLE3=Woody Herman - Is You Is Or Is You Ain't My Baby
TTITLE4=Duke Ellington - Creole Love Call
TTITLE5=Artie Shaw - All Alone
TTITLE6=Louis Armstrong - Ain't Misbehavin
TTITLE7=Stephane Grapelli and Django Reinhardt - Miss Annabelle Lee
TTITLE8=Benny Goodman - Tiger Rag
TTITLE9=Joe Venuti Trio - Wild Cat
TTITLE10=Charlie Parker - Bird Of Paradise
TTITLE11=Lena Horne - Everytime We Say Goodbye
TTITLE12=Lionel Hampton - Nola
TTITLE13=Sarah Vaughan - Lover Man
TTITLE14=Count Basie - Swinging The Blues
TTITLE15=Nat King Cole - Straighten Up and Fly Right
TTITLE16=Ella Fitzgerald - It's Wonderful
TTITLE17=Charlie Parker - Theme
TTITLE18=Louis Armstrong - Yes Suh!
TTITLE19=Bix Biederbecke - Wa Da Da (Everybody's Doing It Now)
TTITLE20=Duke Ellington - Black and Tan Fantasie
TTITLE21=Benny Goodman - My Melancholy Baby
TTITLE22=Stephane Grapelli - Fiddle Blues
TTITLE23=Cab Calloway - The Jumpin' Jive
TTITLE24=Artie Shaw - Blue Skies
EXTD=YEAR: 2002
EXTT0=
EXTT1=
EXTT2=
EXTT3=
EXTT4=
EXTT5=
EXTT6=
EXTT7=
EXTT8=
EXTT9=
EXTT10=
EXTT11=
EXTT12=
EXTT13=
EXTT14=
EXTT15=
EXTT16=
EXTT17=
EXTT18=
EXTT19=
EXTT20=
EXTT21=
EXTT22=
EXTT23=
EXTT24=
PLAYORDER=
